STARTFONT 2.1
COMMENT
COMMENT Converted from OpenType font "Loma.ttf" by "otf2bdf 3.0".
COMMENT
FONT -FreeType-Loma-Medium-R-Normal--30-300-72-72-P-134-ISO10646-1
SIZE 30 72 72
FONTBOUNDINGBOX 62 40 -22 -8
STARTPROPERTIES 19
FOUNDRY "FreeType"
FAMILY_NAME "Loma"
WEIGHT_NAME "Medium"
SLANT "R"
SETWIDTH_NAME "Normal"
ADD_STYLE_NAME ""
PIXEL_SIZE 30
POINT_SIZE 300
RESOLUTION_X 72
RESOLUTION_Y 72
SPACING "P"
AVERAGE_WIDTH 134
CHARSET_REGISTRY "ISO10646"
CHARSET_ENCODING "1"
FONT_ASCENT 33
FONT_DESCENT 8
COPYRIGHT "Copyright (c) NECTEC, 2003. All rights reserved."
_OTF_FONTFILE "Loma.ttf"
_OTF_PSNAME "Loma"
ENDPROPERTIES
CHARS 272
STARTCHAR 0000
ENCODING 0
SWIDTH 0 0
DWIDTH 0 0
BBX 0 0 0 0
BITMAP
ENDCHAR
STARTCHAR 000C
ENCODING 12
SWIDTH 500 0
DWIDTH 15 0
BBX 0 0 0 0
BITMAP
ENDCHAR
STARTCHAR 0020
ENCODING 32
SWIDTH 300 0
DWIDTH 9 0
BBX 0 0 0 0
BITMAP
ENDCHAR
STARTCHAR 0021
ENCODING 33
SWIDTH 266 0
DWIDTH 8 0
BBX 3 21 3 0
BITMAP
E0
E0
E0
E0
E0
E0
E0
C0
C0
C0
C0
C0
C0
C0
C0
40
00
00
C0
C0
C0
ENDCHAR
STARTCHAR 0022
ENCODING 34
SWIDTH 366 0
DWIDTH 11 0
BBX 7 7 2 14
BITMAP
CE
CE
CE
CE
C6
C6
C4
ENDCHAR
STARTCHAR 0023
ENCODING 35
SWIDTH 566 0
DWIDTH 17 0
BBX 16 22 0 0
BITMAP
030E
030E
070E
070C
070C
061C
FFFF
FFFF
FFFF
0E18
0C38
1C38
1C38
1C30
FFFF
FFFF
1870
3870
3860
3860
30E0
70E0
ENDCHAR
STARTCHAR 0024
ENCODING 36
SWIDTH 566 0
DWIDTH 17 0
BBX 14 24 1 -2
BITMAP
0300
0780
1FF0
3F78
7338
731C
631C
6300
7300
7B00
3F80
1FF0
03F8
033C
031C
031C
E30C
E31C
731C
7338
3FF0
1FE0
0300
0300
ENDCHAR
STARTCHAR 0025
ENCODING 37
SWIDTH 900 0
DWIDTH 27 0
BBX 23 23 2 -1
BITMAP
1C00C0
7E01C0
E30180
C38380
C18300
C18700
C18600
C38E00
C30C00
771C00
7E1800
103840
0031F8
00739C
00630C
00E30E
00C306
01C306
01830E
03830E
03038C
0701F8
000070
ENDCHAR
STARTCHAR 0026
ENCODING 38
SWIDTH 666 0
DWIDTH 20 0
BBX 18 23 1 -1
BITMAP
03E000
0FF000
0E7800
1C3800
1C1800
1C3800
1C3800
0E7000
0FE000
07C000
0FC000
1FC000
38E300
70F380
F07F00
E03F00
E01F00
E01E00
703F00
387B80
1FF3C0
0FC1C0
000080
ENDCHAR
STARTCHAR 0027
ENCODING 39
SWIDTH 200 0
DWIDTH 6 0
BBX 3 7 1 14
BITMAP
E0
E0
E0
E0
60
60
60
ENDCHAR
STARTCHAR 0028
ENCODING 40
SWIDTH 333 0
DWIDTH 10 0
BBX 7 28 2 -6
BITMAP
06
0C
1C
18
38
30
70
70
E0
E0
E0
E0
E0
E0
E0
E0
E0
E0
E0
E0
60
70
30
30
18
18
0C
0E
ENDCHAR
STARTCHAR 0029
ENCODING 41
SWIDTH 333 0
DWIDTH 10 0
BBX 7 28 2 -6
BITMAP
C0
60
60
30
38
18
18
1C
0C
0C
0E
0E
0E
0E
0E
0E
0E
0E
0C
0C
1C
1C
18
38
30
60
60
C0
ENDCHAR
STARTCHAR 002A
ENCODING 42
SWIDTH 400 0
DWIDTH 12 0
BBX 10 9 1 13
BITMAP
0C00
0C00
8C80
EF80
FFC0
1C00
3E00
3300
6380
ENDCHAR
STARTCHAR 002B
ENCODING 43
SWIDTH 600 0
DWIDTH 18 0
BBX 14 15 2 3
BITMAP
0300
0300
0300
0300
0300
0300
FFFC
FFFC
FFFC
0300
0300
0300
0300
0300
0300
ENDCHAR
STARTCHAR 002C
ENCODING 44
SWIDTH 266 0
DWIDTH 8 0
BBX 4 7 2 -4
BITMAP
70
70
70
30
30
60
C0
ENDCHAR
STARTCHAR 002D
ENCODING 45
SWIDTH 333 0
DWIDTH 10 0
BBX 8 3 1 6
BITMAP
FF
FF
FF
ENDCHAR
STARTCHAR 002E
ENCODING 46
SWIDTH 266 0
DWIDTH 8 0
BBX 3 3 3 0
BITMAP
E0
E0
E0
ENDCHAR
STARTCHAR 002F
ENCODING 47
SWIDTH 300 0
DWIDTH 9 0
BBX 11 22 -1 0
BITMAP
00E0
00E0
01C0
01C0
0380
0380
0380
0700
0700
0E00
0E00
0E00
1C00
1C00
3800
3800
3800
7000
7000
E000
E000
E000
ENDCHAR
STARTCHAR 0030
ENCODING 48
SWIDTH 566 0
DWIDTH 17 0
BBX 14 21 1 0
BITMAP
07C0
1FF0
3FF0
3878
7038
701C
601C
E01C
E01C
E00C
E00C
E01C
E01C
E01C
701C
701C
7038
3C78
3FF0
1FE0
07C0
ENDCHAR
STARTCHAR 0031
ENCODING 49
SWIDTH 566 0
DWIDTH 17 0
BBX 8 21 3 0
BITMAP
07
07
0F
1F
7F
FB
F3
83
03
03
03
03
03
03
03
03
03
03
03
03
03
ENDCHAR
STARTCHAR 0032
ENCODING 50
SWIDTH 566 0
DWIDTH 17 0
BBX 14 21 1 0
BITMAP
0FC0
1FF0
3878
701C
601C
E01C
001C
001C
0038
0038
0070
00E0
03C0
0700
0E00
1C00
3800
7000
7FFC
FFFC
FFFC
ENDCHAR
STARTCHAR 0033
ENCODING 51
SWIDTH 566 0
DWIDTH 17 0
BBX 14 21 2 0
BITMAP
0FC0
3FE0
7870
7038
E038
0038
0038
0070
00E0
07E0
07F8
0078
001C
001C
001C
E01C
E01C
6038
7878
3FF0
0FC0
ENDCHAR
STARTCHAR 0034
ENCODING 52
SWIDTH 566 0
DWIDTH 17 0
BBX 15 22 1 0
BITMAP
0070
00F0
00F0
01F0
03F0
03F0
0770
0F70
0E70
1C70
3C70
3870
7070
7070
FFFE
FFFE
FFFE
0070
0070
0070
0070
0070
ENDCHAR
STARTCHAR 0035
ENCODING 53
SWIDTH 566 0
DWIDTH 17 0
BBX 14 22 1 0
BITMAP
1FF8
1FF8
3FF8
3800
3800
3800
3000
77C0
7FF0
7FF8
787C
701C
001C
000C
000C
000C
E01C
E01C
7038
7878
3FF0
0FC0
ENDCHAR
STARTCHAR 0036
ENCODING 54
SWIDTH 566 0
DWIDTH 17 0
BBX 14 22 1 0
BITMAP
07C0
1FF0
3FF8
3838
701C
701C
6000
E7C0
EFF0
FFF8
F878
F01C
F01C
F01C
E00C
F00C
701C
701C
7818
3C38
1FF0
07C0
ENDCHAR
STARTCHAR 0037
ENCODING 55
SWIDTH 566 0
DWIDTH 17 0
BBX 14 22 1 0
BITMAP
FFFC
FFFC
FFFC
003C
0038
0070
00F0
00E0
01C0
01C0
0380
0380
0780
0700
0700
0E00
0E00
0E00
0E00
1E00
1E00
1C00
ENDCHAR
STARTCHAR 0038
ENCODING 56
SWIDTH 566 0
DWIDTH 17 0
BBX 14 22 1 0
BITMAP
07C0
1FF0
3878
7038
7018
7018
7018
7038
3878
1FF0
1FE0
3FF8
7878
F01C
E01C
E00C
E00C
E01C
701C
7838
1FF0
0FC0
ENDCHAR
STARTCHAR 0039
ENCODING 57
SWIDTH 566 0
DWIDTH 17 0
BBX 14 21 2 0
BITMAP
0F80
3FE0
70F0
E038
E038
C038
C03C
C03C
E03C
E03C
787C
7FFC
3FDC
0F1C
0018
E038
E038
78F0
7FF0
3FE0
0F80
ENDCHAR
STARTCHAR 003A
ENCODING 58
SWIDTH 266 0
DWIDTH 8 0
BBX 3 16 3 0
BITMAP
E0
E0
E0
00
00
00
00
00
00
00
00
00
00
E0
E0
E0
ENDCHAR
STARTCHAR 003B
ENCODING 59
SWIDTH 266 0
DWIDTH 8 0
BBX 3 20 3 -4
BITMAP
E0
E0
E0
00
00
00
00
00
00
00
00
00
00
E0
E0
E0
20
20
40
80
ENDCHAR
STARTCHAR 003C
ENCODING 60
SWIDTH 600 0
DWIDTH 18 0
BBX 14 15 2 3
BITMAP
0004
003C
00FC
03F0
0FC0
7E00
F800
E000
F800
7E00
0FC0
03F0
00FC
003C
0004
ENDCHAR
STARTCHAR 003D
ENCODING 61
SWIDTH 600 0
DWIDTH 18 0
BBX 14 9 2 6
BITMAP
FFFC
FFFC
0000
0000
0000
0000
0000
FFFC
FFFC
ENDCHAR
STARTCHAR 003E
ENCODING 62
SWIDTH 600 0
DWIDTH 18 0
BBX 14 15 2 3
BITMAP
8000
E000
F800
3F00
0FC0
03F0
007C
001C
007C
03F0
0FC0
7F00
F800
E000
8000
ENDCHAR
STARTCHAR 003F
ENCODING 63
SWIDTH 566 0
DWIDTH 17 0
BBX 14 22 1 0
BITMAP
0FC0
3FF0
3878
701C
701C
E01C
001C
001C
0038
0078
00F0
01C0
01C0
0380
0380
0380
0000
0000
0000
0380
0380
0380
ENDCHAR
STARTCHAR 0040
ENCODING 64
SWIDTH 1000 0
DWIDTH 30 0
BBX 27 28 2 -6
BITMAP
003FC000
01FFF800
03C03C00
0F000E00
1C000300
18000380
381F31C0
707FF0C0
60E1F0C0
E1C0F0E0
E380E0E0
C380E0E0
C300E0E0
C700E0C0
C700E0C0
C701C1C0
C701C380
C383C380
C387CF00
E3FFFE00
61FDFC00
70F8F060
380000E0
1C0001C0
0E000780
07C03F00
01FFFC00
003FE000
ENDCHAR
STARTCHAR 0041
ENCODING 65
SWIDTH 666 0
DWIDTH 20 0
BBX 20 21 0 0
BITMAP
00E000
00F000
01F000
01B800
039800
031C00
031C00
070C00
060E00
0E0600
0E0700
0FFF00
1FFF00
1FFF80
1C0380
3801C0
3801C0
7001E0
7000E0
7000E0
E00070
ENDCHAR
STARTCHAR 0042
ENCODING 66
SWIDTH 666 0
DWIDTH 20 0
BBX 16 21 2 0
BITMAP
FFF0
FFFC
FFFE
E01E
E00E
E006
E00E
E01E
FFFC
FFF8
FFFE
E01F
E007
E007
E007
E007
E007
E01F
FFFE
FFFC
FFF0
ENDCHAR
STARTCHAR 0043
ENCODING 67
SWIDTH 733 0
DWIDTH 22 0
BBX 19 22 1 0
BITMAP
01FC00
0FFF00
1FFF80
3E03C0
3C01E0
7800E0
7000E0
700000
700000
600000
E00000
E00000
700000
700000
700060
7800E0
7800E0
3C01C0
3F07C0
1FFF80
07FF00
01FC00
ENDCHAR
STARTCHAR 0044
ENCODING 68
SWIDTH 733 0
DWIDTH 22 0
BBX 18 21 2 0
BITMAP
FFF000
FFFC00
FFFE00
E03F00
E00780
E00380
E003C0
E001C0
E001C0
E001C0
E001C0
E001C0
E001C0
E001C0
E003C0
E00380
E00780
E01F00
FFFF00
FFFC00
FFF000
ENDCHAR
STARTCHAR 0045
ENCODING 69
SWIDTH 666 0
DWIDTH 20 0
BBX 16 21 2 0
BITMAP
FFFF
FFFF
FFFF
E000
E000
E000
E000
E000
E000
FFF8
FFF8
FFF8
E000
E000
E000
E000
E000
E000
FFFF
FFFF
FFFF
ENDCHAR
STARTCHAR 0046
ENCODING 70
SWIDTH 600 0
DWIDTH 18 0
BBX 15 21 2 0
BITMAP
FFFE
FFFE
FFFE
E000
E000
E000
E000
E000
E000
FFF8
FFF8
FFF8
E000
E000
E000
E000
E000
E000
E000
E000
E000
ENDCHAR
STARTCHAR 0047
ENCODING 71
SWIDTH 733 0
DWIDTH 22 0
BBX 20 22 1 0
BITMAP
01FC00
0FFF00
1FFF80
3E07C0
3C01C0
7800E0
7000E0
700000
700000
600000
E00000
E00000
600FF0
700FF0
700FF0
700060
7800E0
3C00E0
3F03C0
1FFFC0
07FF00
01FC00
ENDCHAR
STARTCHAR 0048
ENCODING 72
SWIDTH 733 0
DWIDTH 22 0
BBX 17 21 2 0
BITMAP
E00180
E00180
E00180
E00180
E00180
E00180
E00180
E00180
FFFF80
FFFF80
FFFF80
E00180
E00180
E00180
E00180
E00180
E00180
E00180
E00180
E00180
E00180
ENDCHAR
STARTCHAR 0049
ENCODING 73
SWIDTH 333 0
DWIDTH 10 0
BBX 9 21 0 0
BITMAP
FF80
FF80
1C00
1C00
1C00
1C00
1C00
1C00
1C00
1C00
1C00
1C00
1C00
1C00
1C00
1C00
1C00
1C00
1C00
FF80
FF80
ENDCHAR
STARTCHAR 004A
ENCODING 74
SWIDTH 500 0
DWIDTH 15 0
BBX 12 21 1 0
BITMAP
07F0
07F0
07F0
0070
0070
0070
0070
0070
0070
0070
0070
0070
0070
0070
E070
E070
E060
F0E0
7FE0
3FC0
1F80
ENDCHAR
STARTCHAR 004B
ENCODING 75
SWIDTH 666 0
DWIDTH 20 0
BBX 18 21 2 0
BITMAP
E00780
E00F00
E01E00
E03800
E07000
E1E000
E3C000
E78000
EF0000
FE0000
FF0000
FF8000
F3C000
E1E000
E0F000
E07800
E03C00
E01C00
E00E00
E00700
E003C0
ENDCHAR
STARTCHAR 004C
ENCODING 76
SWIDTH 566 0
DWIDTH 17 0
BBX 14 21 2 0
BITMAP
E000
E000
E000
E000
E000
E000
E000
E000
E000
E000
E000
E000
E000
E000
E000
E000
E000
E000
FFFC
FFFC
FFFC
ENDCHAR
STARTCHAR 004D
ENCODING 77
SWIDTH 833 0
DWIDTH 25 0
BBX 21 21 2 0
BITMAP
E00038
E00078
F00078
F00078
F800F8
F800F8
F801F8
FC01F8
FC01B8
EE03B8
EE03B8
E60738
E70738
E70738
E38E38
E38E38
E19C38
E1DC38
E1DC38
E0F838
E0F838
ENDCHAR
STARTCHAR 004E
ENCODING 78
SWIDTH 733 0
DWIDTH 22 0
BBX 17 21 2 0
BITMAP
E00180
F00180
F80180
F80180
FC0180
EE0180
EF0180
E70180
E38180
E3C180
E1C180
E0E180
E07180
E07180
E03980
E01D80
E01F80
E00F80
E00780
E00780
E00380
ENDCHAR
STARTCHAR 004F
ENCODING 79
SWIDTH 766 0
DWIDTH 23 0
BBX 20 22 2 0
BITMAP
03F800
0FFE00
1FFF80
3E0FC0
7803C0
7001E0
F000E0
E000F0
E00070
E00070
C00070
C00070
E00070
E00070
E000E0
E000E0
7001E0
7803C0
3E07C0
1FFF80
0FFE00
03F800
ENDCHAR
STARTCHAR 0050
ENCODING 80
SWIDTH 666 0
DWIDTH 20 0
BBX 17 21 2 0
BITMAP
FFF000
FFFC00
FFFF00
E00F00
E00700
E00380
E00380
E00380
E00700
E00F00
FFFE00
FFFE00
FFF800
E00000
E00000
E00000
E00000
E00000
E00000
E00000
E00000
ENDCHAR
STARTCHAR 0051
ENCODING 81
SWIDTH 800 0
DWIDTH 24 0
BBX 22 22 2 0
BITMAP
03F800
0FFE00
1FFF80
3E07C0
7803C0
7001E0
E000E0
E000F0
E00070
E00070
C00070
C00070
C00070
E00070
E00070
E078E0
71FEE0
73CFC0
3F8788
1FFFFC
0FFFFC
03F8F8
ENDCHAR
STARTCHAR 0052
ENCODING 82
SWIDTH 700 0
DWIDTH 21 0
BBX 18 21 2 0
BITMAP
FFF800
FFFE00
FFFF00
E00F00
E00780
E00380
E00380
E00380
E00700
E00F00
FFFE00
FFFC00
FFF000
E07000
E07800
E03C00
E01E00
E00E00
E00F00
E00780
E003C0
ENDCHAR
STARTCHAR 0053
ENCODING 83
SWIDTH 666 0
DWIDTH 20 0
BBX 17 22 1 0
BITMAP
008000
0FFC00
1FFE00
3C1F00
700700
700300
700380
700000
380000
3F8000
1FF800
03FE00
003F80
000780
000380
E00180
600180
700380
780780
3FBF00
1FFE00
07F800
ENDCHAR
STARTCHAR 0054
ENCODING 84
SWIDTH 600 0
DWIDTH 18 0
BBX 17 21 1 0
BITMAP
FFFF80
FFFF80
FFFF80
01C000
01C000
01C000
01C000
01C000
01C000
01C000
01C000
01C000
01C000
01C000
01C000
01C000
01C000
01C000
01C000
01C000
01C000
ENDCHAR
STARTCHAR 0055
ENCODING 85
SWIDTH 733 0
DWIDTH 22 0
BBX 17 21 2 0
BITMAP
E00180
E00180
E00180
E00180
E00180
E00180
E00180
E00180
E00180
E00180
E00180
E00180
E00180
E00180
E00380
700380
700780
7C0F00
3FFF00
1FFC00
07F000
ENDCHAR
STARTCHAR 0056
ENCODING 86
SWIDTH 666 0
DWIDTH 20 0
BBX 20 21 0 0
BITMAP
E00070
7000E0
7000E0
3801C0
3801C0
3801C0
1C0380
1C0380
1E0700
0E0700
0E0700
070E00
070E00
079C00
039C00
039C00
01F800
01F800
01F000
00F000
00F000
ENDCHAR
STARTCHAR 0057
ENCODING 87
SWIDTH 933 0
DWIDTH 28 0
BBX 28 21 0 0
BITMAP
E00F0070
700F00E0
701F80E0
701F80E0
381F80E0
381DC1C0
3839C1C0
3839C1C0
1C39E180
1C70E380
1C70E380
1C70E380
0EF07700
0EE07700
0EE07700
07E03F00
07C03E00
07C03E00
07C03E00
03801E00
03801C00
ENDCHAR
STARTCHAR 0058
ENCODING 88
SWIDTH 666 0
DWIDTH 20 0
BBX 20 21 0 0
BITMAP
7801E0
3C01C0
1C0380
0E0780
0F0700
070E00
039C00
03FC00
01F800
00F000
00F000
01F800
03FC00
039C00
070E00
0F0F00
1E0700
1C0380
3801C0
7801E0
F000F0
ENDCHAR
STARTCHAR 0059
ENCODING 89
SWIDTH 666 0
DWIDTH 20 0
BBX 20 21 0 0
BITMAP
F000F0
7801E0
3801C0
3C0380
1E0780
0F0F00
070E00
079C00
03FC00
01F800
01F000
00F000
00E000
00E000
00E000
00E000
00E000
00E000
00E000
00E000
00E000
ENDCHAR
STARTCHAR 005A
ENCODING 90
SWIDTH 600 0
DWIDTH 18 0
BBX 17 21 1 0
BITMAP
FFFF80
FFFF80
FFFF80
000F00
000E00
001E00
003C00
007800
00F000
01E000
03C000
078000
078000
0F0000
1E0000
3C0000
780000
F00000
FFFF80
FFFF80
FFFF80
ENDCHAR
STARTCHAR 005B
ENCODING 91
SWIDTH 266 0
DWIDTH 8 0
BBX 6 27 2 -6
BITMAP
FC
FC
E0
E0
E0
E0
E0
E0
E0
E0
E0
E0
E0
E0
E0
E0
E0
E0
E0
E0
E0
E0
E0
E0
E0
FC
FC
ENDCHAR
STARTCHAR 005C
ENCODING 92
SWIDTH 266 0
DWIDTH 8 0
BBX 8 22 0 0
BITMAP
C0
C0
60
60
60
30
30
30
30
18
18
18
1C
0C
0C
0C
06
06
06
07
03
03
ENDCHAR
STARTCHAR 005D
ENCODING 93
SWIDTH 266 0
DWIDTH 8 0
BBX 5 27 1 -6
BITMAP
F8
F8
18
18
18
18
18
18
18
18
18
18
18
18
18
18
18
18
18
18
18
18
18
18
18
F8
F8
ENDCHAR
STARTCHAR 005E
ENCODING 94
SWIDTH 466 0
DWIDTH 14 0
BBX 12 12 1 10
BITMAP
0600
0F00
0F00
1F80
1980
1980
39C0
30C0
70E0
6060
E070
E070
ENDCHAR
STARTCHAR 005F
ENCODING 95
SWIDTH 566 0
DWIDTH 17 0
BBX 17 2 0 -6
BITMAP
FFFF80
FFFF80
ENDCHAR
STARTCHAR 0060
ENCODING 96
SWIDTH 333 0
DWIDTH 10 0
BBX 6 5 1 17
BITMAP
F0
70
38
18
0C
ENDCHAR
STARTCHAR 0061
ENCODING 97
SWIDTH 566 0
DWIDTH 17 0
BBX 14 16 1 0
BITMAP
0FE0
1FF0
3878
7038
6018
001C
00FC
1FFC
3F1C
781C
E01C
E03C
E03C
F0FC
7FFC
3F9C
ENDCHAR
STARTCHAR 0062
ENCODING 98
SWIDTH 566 0
DWIDTH 17 0
BBX 13 21 2 0
BITMAP
E000
E000
E000
E000
E000
EFC0
FFE0
F8F0
F038
E038
E018
E018
E018
E018
E018
E018
E038
F030
F870
DFE0
CF80
ENDCHAR
STARTCHAR 0063
ENCODING 99
SWIDTH 500 0
DWIDTH 15 0
BBX 14 16 1 0
BITMAP
0FC0
3FF0
7FF8
7878
7038
E01C
E000
E000
E000
E01C
E01C
7038
7878
3FF8
1FF0
07C0
ENDCHAR
STARTCHAR 0064
ENCODING 100
SWIDTH 566 0
DWIDTH 17 0
BBX 14 21 1 0
BITMAP
001C
001C
001C
001C
001C
0F9C
3FFC
7FFC
787C
F03C
E03C
E03C
E01C
E01C
E01C
E03C
E03C
703C
78FC
3FFC
0FDC
ENDCHAR
STARTCHAR 0065
ENCODING 101
SWIDTH 566 0
DWIDTH 17 0
BBX 14 16 1 0
BITMAP
0FC0
3FF0
3FF8
7878
701C
E01C
E00C
FFFC
FFFC
E000
E000
601C
701C
3838
3FF8
0FE0
ENDCHAR
STARTCHAR 0066
ENCODING 102
SWIDTH 266 0
DWIDTH 8 0
BBX 9 23 0 0
BITMAP
0700
0F80
1F80
1C00
1800
1800
1800
FF00
FF00
1800
1800
1800
1800
1800
1800
1800
1800
1800
1800
1800
1800
1800
1800
ENDCHAR
STARTCHAR 0067
ENCODING 103
SWIDTH 566 0
DWIDTH 17 0
BBX 14 22 1 -6
BITMAP
0FDC
3FFC
787C
703C
E01C
E01C
E01C
E01C
E01C
E01C
E01C
F03C
787C
7FFC
3FDC
0F9C
0018
E038
7038
7870
3FE0
0FC0
ENDCHAR
STARTCHAR 0068
ENCODING 104
SWIDTH 566 0
DWIDTH 17 0
BBX 13 21 2 0
BITMAP
E000
E000
E000
E000
E000
EFC0
FFE0
FFF0
F870
F038
E038
E038
E038
E038
E038
E038
E038
E038
E038
E038
E038
ENDCHAR
STARTCHAR 0069
ENCODING 105
SWIDTH 233 0
DWIDTH 7 0
BBX 3 21 2 0
BITMAP
E0
E0
E0
00
00
E0
E0
E0
E0
E0
E0
E0
E0
E0
E0
E0
E0
E0
E0
E0
E0
ENDCHAR
STARTCHAR 006A
ENCODING 106
SWIDTH 233 0
DWIDTH 7 0
BBX 6 28 -1 -7
BITMAP
1C
1C
1C
00
00
00
1C
1C
1C
1C
1C
1C
1C
1C
1C
1C
1C
1C
1C
1C
1C
1C
1C
1C
38
F8
F8
E0
ENDCHAR
STARTCHAR 006B
ENCODING 107
SWIDTH 500 0
DWIDTH 15 0
BBX 13 21 2 0
BITMAP
E000
E000
E000
E000
E000
E000
E0F0
E1C0
E380
E700
EE00
FC00
FE00
F700
E700
E380
E1C0
E1C0
E0E0
E070
E078
ENDCHAR
STARTCHAR 006C
ENCODING 108
SWIDTH 233 0
DWIDTH 7 0
BBX 3 21 2 0
BITMAP
E0
E0
E0
E0
E0
E0
E0
E0
E0
E0
E0
E0
E0
E0
E0
E0
E0
E0
E0
E0
E0
ENDCHAR
STARTCHAR 006D
ENCODING 109
SWIDTH 833 0
DWIDTH 25 0
BBX 21 16 2 0
BITMAP
C7C3E0
DFEFF0
F8EC78
F07838
E07038
E07038
E07038
E07038
E07038
E07038
E07038
E07038
E07038
E07038
E07038
E07038
ENDCHAR
STARTCHAR 006E
ENCODING 110
SWIDTH 566 0
DWIDTH 17 0
BBX 13 16 2 0
BITMAP
EFC0
FFE0
FFF0
F870
F038
E038
E038
E038
E038
E038
E038
E038
E038
E038
E038
E038
ENDCHAR
STARTCHAR 006F
ENCODING 111
SWIDTH 566 0
DWIDTH 17 0
BBX 15 16 1 0
BITMAP
0FC0
3FF0
7878
701C
E01C
E00C
E00C
E00E
E00E
E00C
E01C
601C
701C
3878
1FF0
0FC0
ENDCHAR
STARTCHAR 0070
ENCODING 112
SWIDTH 566 0
DWIDTH 17 0
BBX 13 22 2 -6
BITMAP
CF80
FFE0
F8F0
F030
E038
E038
C018
C018
C018
C018
E038
E038
F030
F8F0
DFE0
CF80
C000
C000
C000
C000
C000
C000
ENDCHAR
STARTCHAR 0071
ENCODING 113
SWIDTH 566 0
DWIDTH 17 0
BBX 14 22 1 -6
BITMAP
0FDC
1FFC
387C
703C
601C
E01C
E01C
E01C
E01C
E01C
601C
601C
703C
387C
1FFC
0F9C
001C
001C
001C
001C
001C
001C
ENDCHAR
STARTCHAR 0072
ENCODING 114
SWIDTH 333 0
DWIDTH 10 0
BBX 8 16 2 0
BITMAP
CF
DF
FF
F0
E0
E0
E0
E0
E0
E0
E0
E0
E0
E0
E0
E0
ENDCHAR
STARTCHAR 0073
ENCODING 115
SWIDTH 500 0
DWIDTH 15 0
BBX 13 16 1 0
BITMAP
1F80
7FE0
70E0
E070
E030
F000
7F00
7FE0
1FF0
01F8
0038
E038
E038
7070
3FE0
1FC0
ENDCHAR
STARTCHAR 0074
ENCODING 116
SWIDTH 266 0
DWIDTH 8 0
BBX 8 21 0 0
BITMAP
38
38
38
38
38
FE
FE
38
38
38
38
38
38
38
38
38
38
18
1F
1F
07
ENDCHAR
STARTCHAR 0075
ENCODING 117
SWIDTH 566 0
DWIDTH 17 0
BBX 12 16 2 0
BITMAP
C030
C030
C030
C030
C030
C030
C030
C030
C030
C030
C070
E070
F0F0
FFF0
7FF0
1FB0
ENDCHAR
STARTCHAR 0076
ENCODING 118
SWIDTH 500 0
DWIDTH 15 0
BBX 15 16 0 0
BITMAP
E00E
701C
701C
3018
3838
3838
1C30
1C70
0C70
0EE0
0EE0
06C0
07C0
07C0
0380
0380
ENDCHAR
STARTCHAR 0077
ENCODING 119
SWIDTH 733 0
DWIDTH 22 0
BBX 21 16 0 0
BITMAP
E07018
607838
707838
707830
70F830
30DC70
38CC70
39CC60
19CE60
198EE0
1D86E0
1F86C0
0F87C0
0F03C0
0F0380
070380
ENDCHAR
STARTCHAR 0078
ENCODING 120
SWIDTH 500 0
DWIDTH 15 0
BBX 15 16 0 0
BITMAP
701C
3838
3878
1C70
0EE0
0FC0
07C0
0380
0780
07C0
0EE0
1C70
1870
3838
701C
E01E
ENDCHAR
STARTCHAR 0079
ENCODING 121
SWIDTH 500 0
DWIDTH 15 0
BBX 15 22 0 -6
BITMAP
F00E
700C
701C
3818
3818
1838
1C30
1C70
0C70
0E60
0EE0
06C0
07C0
03C0
0380
0380
0380
0380
0700
3F00
3E00
3800
ENDCHAR
STARTCHAR 007A
ENCODING 122
SWIDTH 500 0
DWIDTH 15 0
BBX 13 15 1 0
BITMAP
FFF8
FFF8
0070
00F0
01E0
03C0
0780
0F00
0E00
1C00
3800
7000
E000
FFF8
FFF8
ENDCHAR
STARTCHAR 007B
ENCODING 123
SWIDTH 333 0
DWIDTH 10 0
BBX 8 28 1 -6
BITMAP
07
0F
1E
1C
18
18
18
18
18
18
18
38
30
F0
E0
F0
38
18
18
18
18
18
18
18
18
1C
0F
0F
ENDCHAR
STARTCHAR 007C
ENCODING 124
SWIDTH 266 0
DWIDTH 8 0
BBX 2 28 3 -6
BITMAP
C0
C0
C0
C0
C0
C0
C0
C0
C0
C0
C0
C0
C0
C0
C0
C0
C0
C0
C0
C0
C0
C0
C0
C0
C0
C0
C0
C0
ENDCHAR
STARTCHAR 007D
ENCODING 125
SWIDTH 333 0
DWIDTH 10 0
BBX 8 28 1 -6
BITMAP
E0
F0
F8
38
18
18
18
18
18
18
18
1C
0C
07
07
0F
1C
18
18
18
18
18
18
18
18
38
F0
F0
ENDCHAR
STARTCHAR 007E
ENCODING 126
SWIDTH 600 0
DWIDTH 18 0
BBX 15 5 1 8
BITMAP
3E02
7F86
FFFE
C1FE
8078
ENDCHAR
STARTCHAR 007F
ENCODING 127
SWIDTH 600 0
DWIDTH 18 0
BBX 18 18 0 0
BITMAP
008000
04C800
061800
000300
300300
000000
400080
400080
000000
000000
C000C0
000080
000000
300180
000100
0C0400
08CC00
00C000
ENDCHAR
STARTCHAR 00A0
ENCODING 160
SWIDTH 500 0
DWIDTH 15 0
BBX 0 0 0 0
BITMAP
ENDCHAR
STARTCHAR 00A1
ENCODING 161
SWIDTH 333 0
DWIDTH 10 0
BBX 4 22 3 0
BITMAP
E0
E0
E0
00
00
00
60
60
60
60
60
60
60
60
60
E0
E0
F0
F0
F0
F0
F0
ENDCHAR
STARTCHAR 00A2
ENCODING 162
SWIDTH 533 0
DWIDTH 16 0
BBX 12 27 2 -5
BITMAP
0300
0300
0300
0300
0300
0300
1FF0
3FF0
7330
7310
E300
E300
E300
E300
E300
E300
E300
E300
7310
7B70
3FF0
0FC0
0300
0300
0300
0300
0300
ENDCHAR
STARTCHAR 00A3
ENCODING 163
SWIDTH 533 0
DWIDTH 16 0
BBX 14 22 1 0
BITMAP
03FC
07FC
0F1C
0E00
1C00
1C00
1C00
1C00
1C00
1C00
1C00
7FE0
7FE0
1C00
1C00
1C00
1800
3800
7000
FFFC
FFFC
FFFC
ENDCHAR
STARTCHAR 00A4
ENCODING 164
SWIDTH 533 0
DWIDTH 16 0
BBX 14 15 1 2
BITMAP
4008
E01C
713C
3FF8
1EF0
1870
3830
3030
3830
1870
3FF0
7FF8
F01C
E00C
4008
ENDCHAR
STARTCHAR 00A5
ENCODING 165
SWIDTH 533 0
DWIDTH 16 0
BBX 15 22 1 0
BITMAP
E01E
E01C
7038
7038
3830
3870
1C60
1CE0
0EC0
0FC0
0780
0780
0380
0380
7FFC
7FFC
0380
0380
0380
0380
0380
0380
ENDCHAR
STARTCHAR 00A6
ENCODING 166
SWIDTH 366 0
DWIDTH 11 0
BBX 2 29 5 -6
BITMAP
C0
C0
C0
C0
C0
C0
C0
C0
C0
C0
C0
C0
00
00
00
00
00
C0
C0
C0
C0
C0
C0
C0
C0
C0
C0
C0
C0
ENDCHAR
STARTCHAR 00A7
ENCODING 167
SWIDTH 533 0
DWIDTH 16 0
BBX 13 28 2 -6
BITMAP
1FF0
3FF0
7870
E000
E000
E000
F000
7800
7F80
1FE0
73F0
E070
E038
E038
E030
E070
F860
7FC0
1FC0
03E0
00F0
0070
0070
0070
40F0
7FE0
7FC0
0C00
ENDCHAR
STARTCHAR 00A8
ENCODING 168
SWIDTH 533 0
DWIDTH 16 0
BBX 9 3 4 19
BITMAP
E380
E380
E380
ENDCHAR
STARTCHAR 00A9
ENCODING 169
SWIDTH 933 0
DWIDTH 28 0
BBX 26 25 1 -3
BITMAP
007F8000
03E3E000
07003800
0C001C00
18000600
300E0700
307FC300
60FBC180
60E04180
41C00080
C1C00080
C1C000C0
C18000C0
C1C000C0
C1C00080
41C00180
60E0C180
607FC180
303F8300
38000600
18000E00
0E001C00
07007800
01FFE000
007F8000
ENDCHAR
STARTCHAR 00AA
ENCODING 170
SWIDTH 500 0
DWIDTH 15 0
BBX 11 14 2 8
BITMAP
7F80
7FC0
40C0
00E0
00E0
1FE0
7FE0
E0E0
C0E0
C0E0
C0E0
E3E0
7FE0
3EE0
ENDCHAR
STARTCHAR 00AB
ENCODING 171
SWIDTH 566 0
DWIDTH 17 0
BBX 13 15 2 2
BITMAP
0200
0208
0E18
1E38
3870
70E0
E3C0
C380
E1C0
70E0
3C70
1E38
0618
0208
0200
ENDCHAR
STARTCHAR 00AC
ENCODING 172
SWIDTH 733 0
DWIDTH 22 0
BBX 17 10 2 1
BITMAP
FFFF80
FFFF80
000180
000180
000180
000180
000180
000180
000180
000180
ENDCHAR
STARTCHAR 00AD
ENCODING 173
SWIDTH 366 0
DWIDTH 11 0
BBX 8 3 1 6
BITMAP
FF
FF
FF
ENDCHAR
STARTCHAR 00AE
ENCODING 174
SWIDTH 933 0
DWIDTH 28 0
BBX 26 25 1 -3
BITMAP
007F8000
03E3E000
07003800
0C001C00
18000600
307C0700
307F8300
6063C180
6061C180
4061C080
C061C080
C06380C0
C07F00C0
C07F00C0
C0670080
40638180
6061C180
6060E180
30607300
38000600
18000E00
0E001C00
07007800
01FFE000
007F8000
ENDCHAR
STARTCHAR 00AF
ENCODING 175
SWIDTH 533 0
DWIDTH 16 0
BBX 17 2 0 24
BITMAP
FFFF80
FFFF80
ENDCHAR
STARTCHAR 00B0
ENCODING 176
SWIDTH 466 0
DWIDTH 14 0
BBX 12 11 1 11
BITMAP
1F80
3FC0
70E0
6060
6070
E070
6070
7060
79E0
3FC0
0F00
ENDCHAR
STARTCHAR 00B1
ENCODING 177
SWIDTH 733 0
DWIDTH 22 0
BBX 17 19 2 2
BITMAP
00C000
00C000
00C000
00C000
00C000
00C000
00C000
00C000
FFFF80
FFFF80
00C000
00C000
00C000
00C000
00C000
00C000
FFFF80
FFFF80
FFFF80
ENDCHAR
STARTCHAR 00B2
ENCODING 178
SWIDTH 500 0
DWIDTH 15 0
BBX 10 14 3 8
BITMAP
FE00
FF00
8780
0380
0380
0300
0700
0E00
1C00
3800
7000
E000
FFC0
FFC0
ENDCHAR
STARTCHAR 00B3
ENCODING 179
SWIDTH 500 0
DWIDTH 15 0
BBX 9 14 3 8
BITMAP
FE00
FF00
8380
0380
0380
0700
3E00
3F00
0380
0180
0180
8380
FF00
FE00
ENDCHAR
STARTCHAR 00B4
ENCODING 180
SWIDTH 533 0
DWIDTH 16 0
BBX 6 6 7 19
BITMAP
3C
38
70
70
E0
C0
ENDCHAR
STARTCHAR 00B5
ENCODING 181
SWIDTH 566 0
DWIDTH 17 0
BBX 13 22 2 -6
BITMAP
E038
E038
E038
E038
E038
E038
E038
E038
E038
E038
E038
E038
E038
FDF8
FFD8
EF98
E000
E000
E000
E000
E000
E000
ENDCHAR
STARTCHAR 00B6
ENCODING 182
SWIDTH 533 0
DWIDTH 16 0
BBX 13 27 1 -5
BITMAP
07F8
3FF8
7F98
FF98
FF98
FF98
FF98
FF98
FF98
FF98
7F98
3F98
1F98
0198
0198
0198
0198
0198
0198
0198
0198
0198
0198
0198
0198
0198
0198
ENDCHAR
STARTCHAR 00B7
ENCODING 183
SWIDTH 366 0
DWIDTH 11 0
BBX 3 4 4 12
BITMAP
E0
E0
E0
E0
ENDCHAR
STARTCHAR 00B8
ENCODING 184
SWIDTH 533 0
DWIDTH 16 0
BBX 7 6 4 -6
BITMAP
06
06
06
8E
FC
F8
ENDCHAR
STARTCHAR 00BD
ENCODING 189
SWIDTH 500 0
DWIDTH 15 0
BBX 0 0 0 0
BITMAP
ENDCHAR
STARTCHAR 0E01
ENCODING 3585
SWIDTH 600 0
DWIDTH 18 0
BBX 14 16 2 0
BITMAP
0FC0
3FF0
7FF8
7078
E01C
701C
381C
301C
701C
601C
601C
601C
601C
601C
601C
601C
ENDCHAR
STARTCHAR 0E02
ENCODING 3586
SWIDTH 700 0
DWIDTH 21 0
BBX 17 16 1 0
BITMAP
1F0380
3FC380
7FE380
78E380
E46380
C44380
7CC380
7D8380
318380
018380
018380
018380
018380
01FF80
01FF80
01FF80
ENDCHAR
STARTCHAR 0E03
ENCODING 3587
SWIDTH 700 0
DWIDTH 21 0
BBX 18 16 1 0
BITMAP
39C1C0
7FE1C0
7FF1C0
E679C0
E039C0
F879C0
E4F1C0
E4E1C0
78E1C0
00E1C0
00E1C0
00E1C0
00E1C0
00FFC0
00FFC0
00FFC0
ENDCHAR
STARTCHAR 0E04
ENCODING 3588
SWIDTH 666 0
DWIDTH 20 0
BBX 16 16 2 0
BITMAP
07E0
1FF8
3C3C
700E
6006
E086
E3E6
E727
6727
6FE7
6DE7
6C07
7C07
3807
3807
3807
ENDCHAR
STARTCHAR 0E05
ENCODING 3589
SWIDTH 666 0
DWIDTH 20 0
BBX 15 16 2 0
BITMAP
0C60
3EF8
7FFC
F39C
E10E
E00E
E3CE
E76E
EE6E
EFCE
7C0E
780E
780E
700E
700E
700E
ENDCHAR
STARTCHAR 0E06
ENCODING 3590
SWIDTH 733 0
DWIDTH 22 0
BBX 18 16 2 0
BITMAP
18C1C0
3FF1C0
7FF1C0
F739C0
E039C0
F879C0
E4F1C0
E4E1C0
78E1C0
00E1C0
03F1C0
06F9C0
04FDC0
04EFC0
06E7C0
03C3C0
ENDCHAR
STARTCHAR 0E07
ENCODING 3591
SWIDTH 500 0
DWIDTH 15 0
BBX 11 16 2 0
BITMAP
0380
04C0
0CC0
0FE0
07E0
07E0
80E0
E0E0
60E0
60E0
60E0
70E0
70E0
30C0
3FC0
0F80
ENDCHAR
STARTCHAR 0E08
ENCODING 3592
SWIDTH 600 0
DWIDTH 18 0
BBX 14 16 1 0
BITMAP
07E0
1FF8
3FF8
703C
C01C
1E0C
1F0C
330C
330C
3F0C
1F0C
030C
030C
03FC
01F8
00F0
ENDCHAR
STARTCHAR 0E09
ENCODING 3593
SWIDTH 666 0
DWIDTH 20 0
BBX 16 16 3 0
BITMAP
0F80
3FE0
7FF0
F070
C038
0038
7038
B838
B838
B838
783E
38FF
3BFB
3FFB
3F3F
3C1E
ENDCHAR
STARTCHAR 0E0A
ENCODING 3594
SWIDTH 666 0
DWIDTH 20 0
BBX 16 17 3 0
BITMAP
0007
1E07
7F8E
F3FC
E1F8
F1FC
CB9E
CF0E
770E
070E
070E
070E
070E
070E
07FE
07FE
07FE
ENDCHAR
STARTCHAR 0E0B
ENCODING 3595
SWIDTH 666 0
DWIDTH 20 0
BBX 18 17 1 0
BITMAP
0001C0
39C1C0
7FE3C0
F6FF00
E07C00
E07F00
F8E700
E5C380
E5C380
79C380
01C380
01C380
01C380
01C380
01C380
01FF80
01FF80
ENDCHAR
STARTCHAR 0E0C
ENCODING 3596
SWIDTH 866 0
DWIDTH 26 0
BBX 22 16 2 1
BITMAP
0FC01C
3FF01C
7FF81C
F0381C
F01C1C
381C1C
1C1C1C
381C1C
701C1C
701C1C
707E1C
7CDF9C
729FDC
729CFC
72FC7C
3C781C
ENDCHAR
STARTCHAR 0E0D
ENCODING 3597
SWIDTH 866 0
DWIDTH 26 0
BBX 23 23 1 -7
BITMAP
07C00E
1FF00E
3FF80E
703C0E
F01C0E
381C0E
1C1C0E
381C0E
701C0E
701C0E
701C0E
7C1C0E
721C0E
721FFE
721FFE
3C1FFE
000000
000706
000C86
000C8E
000F9C
0007F8
0003E0
ENDCHAR
STARTCHAR 0E0E
ENCODING 3598
SWIDTH 666 0
DWIDTH 20 0
BBX 16 22 2 -6
BITMAP
01F0
07FC
0FFE
1E0E
3C07
0E07
0707
0E07
1C07
1C07
1C07
7C07
9C07
9C07
9C1F
783F
03F7
0FF7
1CFF
186F
1FE7
0FC3
ENDCHAR
STARTCHAR 0E0F
ENCODING 3599
SWIDTH 666 0
DWIDTH 20 0
BBX 17 22 1 -6
BITMAP
01F800
03FE00
0F0F00
0C0300
180380
0E0380
030180
060180
0E0180
0C0180
0C0180
7C0180
CC0180
CC0180
FC6180
786180
0FC980
1FC980
31FD80
31BF80
3F1780
1E0380
ENDCHAR
STARTCHAR 0E10
ENCODING 3600
SWIDTH 566 0
DWIDTH 17 0
BBX 14 24 1 -8
BITMAP
0FC0
1FFC
383C
7000
7E00
FFC0
3BF0
7C70
4C30
CE30
7E30
7E30
0E30
0E30
07F0
03E0
0000
00F0
00B0
04F8
3EB8
C7F8
9F78
F238
ENDCHAR
STARTCHAR 0E11
ENCODING 3601
SWIDTH 833 0
DWIDTH 25 0
BBX 20 16 2 0
BITMAP
3180E0
7FC1F0
EFE3B0
E46330
F86730
C8F630
CCCE30
F9CC30
79DC30
01D830
01D830
01F030
01F030
01E030
01E030
01E030
ENDCHAR
STARTCHAR 0E12
ENCODING 3602
SWIDTH 900 0
DWIDTH 27 0
BBX 23 16 2 0
BITMAP
0C700E
3EF80E
739C0E
E20C0E
C00E0E
C6060E
CF060E
D9860E
D9860E
FF860E
EF1E0E
63378E
6627EE
7E26FE
7C3E3E
701C0E
ENDCHAR
STARTCHAR 0E13
ENCODING 3603
SWIDTH 933 0
DWIDTH 28 0
BBX 25 16 2 0
BITMAP
07C01C00
1FF01C00
3FF81C00
78381C00
F01C1C00
381C1C00
1C1C1C00
381C1C00
701C1C00
701C1C00
701C3F00
701C7D80
7C1DFD80
721FDD80
721F9F80
3C1E0F00
ENDCHAR
STARTCHAR 0E14
ENCODING 3604
SWIDTH 633 0
DWIDTH 19 0
BBX 15 16 2 0
BITMAP
0FE0
3FF8
7FFC
783C
F01E
E00E
E38E
E4CE
E4CE
E4CE
73CE
738E
770E
7E0E
7C0E
780E
ENDCHAR
STARTCHAR 0E15
ENCODING 3605
SWIDTH 633 0
DWIDTH 19 0
BBX 15 16 2 0
BITMAP
0C60
3EF8
7FFC
F11E
E00E
E78E
EFCE
ECCE
ECCE
EFCE
E38E
E78E
7F0E
7E0E
7C0E
780E
ENDCHAR
STARTCHAR 0E16
ENCODING 3606
SWIDTH 600 0
DWIDTH 18 0
BBX 14 16 2 1
BITMAP
0FE0
3FF8
7FF8
F03C
381C
1C1C
381C
701C
701C
701C
7C1C
7E1C
721C
721C
7E1C
3C1C
ENDCHAR
STARTCHAR 0E17
ENCODING 3607
SWIDTH 666 0
DWIDTH 20 0
BBX 17 16 1 1
BITMAP
780F00
9C1F80
9C1F80
9C3B80
7C3380
1C7380
1C6380
1CE380
1CC380
1DC380
1D8380
1F8380
1F0380
1F0380
1E0380
1E0380
ENDCHAR
STARTCHAR 0E18
ENCODING 3608
SWIDTH 600 0
DWIDTH 18 0
BBX 14 16 2 1
BITMAP
1FCC
3FFC
7FF8
F870
FF80
1FF0
01F8
3838
3838
3838
3838
3838
3838
3FF8
3FF8
3FF8
ENDCHAR
STARTCHAR 0E19
ENCODING 3609
SWIDTH 700 0
DWIDTH 21 0
BBX 18 16 2 0
BITMAP
700E00
980E00
9C0E00
FC0E00
FC0E00
7C0E00
1C0E00
1C0E00
1C0E00
1C0E00
1C3F80
1CFFC0
1FFEC0
1FFEC0
1F87C0
1E0780
ENDCHAR
STARTCHAR 0E1A
ENCODING 3610
SWIDTH 633 0
DWIDTH 19 0
BBX 16 16 1 1
BITMAP
7807
FC07
9C07
9C07
FC07
7C07
1C07
1C07
1C07
1C07
1C07
1C07
1C07
1FFF
1FFF
1FFF
ENDCHAR
STARTCHAR 0E1B
ENCODING 3611
SWIDTH 633 0
DWIDTH 19 0
BBX 16 22 2 0
BITMAP
0007
0007
0007
0007
0007
0007
7807
FC07
9C07
9C07
FC07
7C07
1C07
1C07
1C07
1C07
1C07
1C07
1C07
1FFF
1FFF
1FFF
ENDCHAR
STARTCHAR 0E1C
ENCODING 3612
SWIDTH 600 0
DWIDTH 18 0
BBX 14 16 2 1
BITMAP
781C
E41C
E41C
E41C
F81C
E01C
E01C
E01C
E31C
E79C
EFDC
FFFC
FCFC
F87C
F03C
E01C
ENDCHAR
STARTCHAR 0E1D
ENCODING 3613
SWIDTH 600 0
DWIDTH 18 0
BBX 14 22 2 0
BITMAP
001C
001C
001C
001C
001C
001C
781C
E41C
E41C
E41C
F81C
E01C
E01C
E01C
E31C
E79C
EFDC
FFFC
FCFC
F87C
F03C
E01C
ENDCHAR
STARTCHAR 0E1E
ENCODING 3614
SWIDTH 666 0
DWIDTH 20 0
BBX 17 16 1 0
BITMAP
786380
9C6380
9CF380
9CF380
7CF380
1DFB80
1DFB80
1D9B80
1F9F80
1F9F80
1F0F80
1F0F80
1E0780
1E0780
1E0780
1C0380
ENDCHAR
STARTCHAR 0E1F
ENCODING 3615
SWIDTH 700 0
DWIDTH 21 0
BBX 16 22 3 0
BITMAP
0007
0007
0007
0007
0007
0007
7847
DC47
DCE7
DCE7
7DF7
1DB7
1DB7
1FBF
1FBF
1F1F
1F1F
1F1F
1E0F
1E0F
1E0F
1C07
ENDCHAR
STARTCHAR 0E20
ENCODING 3616
SWIDTH 666 0
DWIDTH 20 0
BBX 16 16 2 0
BITMAP
01F0
07FC
0FFE
1E0E
3C07
0E07
0707
0E07
1C07
1C07
7C07
FC07
9C07
9C07
FC07
7807
ENDCHAR
STARTCHAR 0E21
ENCODING 3617
SWIDTH 666 0
DWIDTH 20 0
BBX 14 16 3 0
BITMAP
781C
DC1C
DC1C
7C1C
1C1C
1C1C
1C1C
1C1C
1C1C
1C1C
7C1C
FF1C
DFDC
DDFC
FC7C
781C
ENDCHAR
STARTCHAR 0E22
ENCODING 3618
SWIDTH 600 0
DWIDTH 18 0
BBX 12 16 3 0
BITMAP
7870
FC70
E470
E470
FC70
F870
E070
E070
7C70
7C70
E070
E070
E070
FFF0
FFF0
FFF0
ENDCHAR
STARTCHAR 0E23
ENCODING 3619
SWIDTH 533 0
DWIDTH 16 0
BBX 13 16 2 -1
BITMAP
0F80
3FF8
7FF8
7878
FE00
FF80
0FC0
01E0
00E0
00E0
00E0
03E0
06E0
06E0
06E0
03C0
ENDCHAR
STARTCHAR 0E24
ENCODING 3620
SWIDTH 600 0
DWIDTH 18 0
BBX 14 22 2 -5
BITMAP
0FE0
3FF8
7FF8
F83C
F01C
381C
1C1C
381C
701C
701C
701C
7C1C
761C
761C
761C
3C1C
001C
001C
001C
001C
001C
001C
ENDCHAR
STARTCHAR 0E25
ENCODING 3621
SWIDTH 600 0
DWIDTH 18 0
BBX 14 16 2 0
BITMAP
1FC0
7FF0
FFF8
E07C
C03C
001C
0F9C
3FDC
3FFC
78FC
703C
7C3C
721C
721C
721C
3C1C
ENDCHAR
STARTCHAR 0E26
ENCODING 3622
SWIDTH 666 0
DWIDTH 20 0
BBX 16 22 2 -6
BITMAP
01F0
07FC
0FFE
1E0E
3C07
0E07
0707
0E07
0E07
1C07
1C07
1C07
7C07
9C07
9C07
7807
0007
0007
0007
0007
0007
0007
ENDCHAR
STARTCHAR 0E27
ENCODING 3623
SWIDTH 533 0
DWIDTH 16 0
BBX 12 16 2 0
BITMAP
1F80
7FE0
FFE0
E0F0
8070
0070
0070
0070
0070
0070
0070
01F0
0270
0270
0270
01E0
ENDCHAR
STARTCHAR 0E28
ENCODING 3624
SWIDTH 633 0
DWIDTH 19 0
BBX 18 18 1 0
BITMAP
0001C0
0003C0
07E780
3FFF00
7FFE00
781F00
F00F00
E00700
E3C700
E76700
E62700
EF6700
7DC700
7C0700
780700
780700
700700
700700
ENDCHAR
STARTCHAR 0E29
ENCODING 3625
SWIDTH 633 0
DWIDTH 19 0
BBX 18 16 1 0
BITMAP
780E00
9C0E00
9C0E00
9C0E00
7C0E00
1C6EC0
1CDFC0
1CDF80
1CDF00
1C7E00
1C0E00
1C0E00
1C0E00
1FFE00
1FFE00
1FFE00
ENDCHAR
STARTCHAR 0E2A
ENCODING 3626
SWIDTH 600 0
DWIDTH 18 0
BBX 15 18 2 0
BITMAP
000E
001E
1FBC
7FF8
FFF8
E078
C038
0FB8
3FF8
3FF8
7878
7038
7C38
7E38
7238
7238
7E38
3C38
ENDCHAR
STARTCHAR 0E2B
ENCODING 3627
SWIDTH 633 0
DWIDTH 19 0
BBX 16 16 1 1
BITMAP
781E
DC3F
DC33
DC33
7C3F
1C1E
1C3F
1C7F
1CF7
1DE7
1FC7
1F87
1F07
1E07
1C07
1C07
ENDCHAR
STARTCHAR 0E2C
ENCODING 3628
SWIDTH 700 0
DWIDTH 21 0
BBX 19 22 2 0
BITMAP
000E00
001B20
001120
001BE0
000FC0
000700
780700
9C4700
9C4700
9CE700
7CE700
1DF700
1DB700
1DB700
1FBF00
1F1F00
1F1F00
1F1F00
1E0F00
1E0F00
1E0F00
1C0700
ENDCHAR
STARTCHAR 0E2D
ENCODING 3629
SWIDTH 600 0
DWIDTH 18 0
BBX 13 16 2 1
BITMAP
1FC0
7FF0
FFF8
E078
C038
0038
3E38
7B38
7B38
7B38
7E38
7838
7838
7FF8
7FF8
7FF8
ENDCHAR
STARTCHAR 0E2E
ENCODING 3630
SWIDTH 600 0
DWIDTH 18 0
BBX 12 16 3 1
BITMAP
7FB0
FFF0
E0E0
FFF0
7F70
0070
7870
E470
E470
E470
F870
E070
E070
FFF0
FFF0
FFF0
ENDCHAR
STARTCHAR 0E2F
ENCODING 3631
SWIDTH 566 0
DWIDTH 17 0
BBX 13 16 2 0
BITMAP
7818
CC38
CC38
FCF8
FFF8
7F98
0018
0018
0018
0018
0018
0018
0018
0018
0018
0018
ENDCHAR
STARTCHAR 0E30
ENCODING 3632
SWIDTH 533 0
DWIDTH 16 0
BBX 10 13 3 1
BITMAP
F040
90C0
90C0
F180
FF80
3E00
0000
F040
90C0
90C0
F1C0
FF80
7E00
ENDCHAR
STARTCHAR 0E31
ENCODING 3633
SWIDTH 0 0
DWIDTH 0 0
BBX 12 6 -11 18
BITMAP
7070
E870
E8E0
E9C0
7F80
3E00
ENDCHAR
STARTCHAR 0E32
ENCODING 3634
SWIDTH 566 0
DWIDTH 17 0
BBX 12 16 2 1
BITMAP
0F00
3FC0
7FE0
E0F0
0070
0070
0070
0070
0070
0070
0070
0070
0070
0070
0070
0070
ENDCHAR
STARTCHAR 0E33
ENCODING 3635
SWIDTH 500 0
DWIDTH 15 0
BBX 22 24 -8 0
BITMAP
3C0000
7E0000
C60000
E60000
7E0000
3C0000
000000
000000
0007C0
000FF0
001C38
003018
00101C
00001C
00001C
00001C
00001C
00001C
00001C
00001C
00001C
00001C
00001C
00001C
ENDCHAR
STARTCHAR 0E34
ENCODING 3636
SWIDTH 0 0
DWIDTH 0 0
BBX 13 6 -16 18
BITMAP
0F80
3FE0
7070
FC30
FFF8
0038
ENDCHAR
STARTCHAR 0E35
ENCODING 3637
SWIDTH 0 0
DWIDTH 0 0
BBX 13 7 -16 18
BITMAP
0018
1F98
3FF8
7078
FE38
FFF8
0038
ENDCHAR
STARTCHAR 0E36
ENCODING 3638
SWIDTH 0 0
DWIDTH 0 0
BBX 16 7 -16 18
BITMAP
000C
1F9E
3FF3
7073
F83E
FFFC
0038
ENDCHAR
STARTCHAR 0E37
ENCODING 3639
SWIDTH 0 0
DWIDTH 0 0
BBX 13 7 -16 18
BITMAP
00D8
02D8
1FD8
7CF8
7038
FFF8
01F8
ENDCHAR
STARTCHAR 0E38
ENCODING 3640
SWIDTH 0 0
DWIDTH 0 0
BBX 5 7 -8 -8
BITMAP
70
D8
98
78
18
18
18
ENDCHAR
STARTCHAR 0E39
ENCODING 3641
SWIDTH 0 0
DWIDTH 0 0
BBX 9 7 -12 -8
BITMAP
6180
F180
9980
F980
5980
1F80
1F80
ENDCHAR
STARTCHAR 0E3A
ENCODING 3642
SWIDTH 0 0
DWIDTH 0 0
BBX 4 4 -6 -5
BITMAP
70
F0
70
60
ENDCHAR
STARTCHAR 0E3F
ENCODING 3647
SWIDTH 600 0
DWIDTH 18 0
BBX 15 25 2 -2
BITMAP
0300
FFC0
FFF0
FFF8
E33C
E31C
E31C
E31C
E318
E378
FFE0
FFF0
E3FC
E31C
E30E
E30E
E30E
E30E
E31E
E31C
E3F8
FFF0
FFC0
0300
0300
ENDCHAR
STARTCHAR 0E40
ENCODING 3648
SWIDTH 333 0
DWIDTH 10 0
BBX 6 16 2 1
BITMAP
E0
E0
E0
E0
E0
E0
E0
E0
E0
E0
F8
EC
EC
EC
EC
78
ENDCHAR
STARTCHAR 0E41
ENCODING 3649
SWIDTH 633 0
DWIDTH 19 0
BBX 15 16 3 0
BITMAP
E070
E070
E070
E070
E070
E070
E070
E070
E070
E070
E070
F87C
E472
E472
E472
783C
ENDCHAR
STARTCHAR 0E42
ENCODING 3650
SWIDTH 566 0
DWIDTH 17 0
BBX 15 27 0 0
BITMAP
0F80
3FFE
7FFE
703C
FE00
FF80
07C0
01E0
00E0
00E0
00E0
00E0
00E0
00E0
00E0
00E0
00E0
00E0
00E0
00E0
00E0
00FC
00E6
00E6
00E6
00E6
007C
ENDCHAR
STARTCHAR 0E43
ENCODING 3651
SWIDTH 500 0
DWIDTH 15 0
BBX 13 27 1 0
BITMAP
0F80
3FC0
7EE0
C630
C330
C230
C630
FE30
7C60
00C0
01C0
0180
0180
0180
0180
0180
0180
0180
0180
0180
0180
01F0
01F8
0198
0198
0198
00F0
ENDCHAR
STARTCHAR 0E44
ENCODING 3652
SWIDTH 500 0
DWIDTH 15 0
BBX 16 27 -2 0
BITMAP
01E0
C1F0
6370
6370
6370
3670
3E70
0070
0070
0070
0070
0070
0070
0070
0070
0070
0070
0070
0070
0070
0070
007E
007E
0072
0033
0032
001C
ENDCHAR
STARTCHAR 0E45
ENCODING 3653
SWIDTH 500 0
DWIDTH 15 0
BBX 12 22 1 -6
BITMAP
1F80
7FC0
70E0
E070
2070
0030
0030
0030
0030
0030
0030
0030
0030
0030
0030
0030
0030
0030
0030
0030
0030
0030
ENDCHAR
STARTCHAR 0E46
ENCODING 3654
SWIDTH 533 0
DWIDTH 16 0
BBX 12 22 2 -5
BITMAP
18C0
3FE0
7FE0
E270
F870
CC30
CC30
CC30
7830
0030
0030
0030
0030
0030
0030
0030
0030
0030
0030
0030
0030
0030
ENDCHAR
STARTCHAR 0E47
ENCODING 3655
SWIDTH 0 0
DWIDTH 0 0
BBX 11 9 -15 19
BITMAP
0060
00E0
3FC0
7F00
E1C0
C160
D960
FFE0
67C0
ENDCHAR
STARTCHAR 0E48
ENCODING 3656
SWIDTH 0 0
DWIDTH 0 0
BBX 3 5 -5 27
BITMAP
E0
E0
C0
C0
C0
ENDCHAR
STARTCHAR 0E49
ENCODING 3657
SWIDTH 0 0
DWIDTH 0 0
BBX 11 7 -10 25
BITMAP
6060
D8E0
98C0
F980
1700
3E00
7800
ENDCHAR
STARTCHAR 0E4A
ENCODING 3658
SWIDTH 0 0
DWIDTH 0 0
BBX 15 8 -13 24
BITMAP
1106
3B8C
6FCC
C47C
F878
E878
6870
2180
ENDCHAR
STARTCHAR 0E4B
ENCODING 3659
SWIDTH 0 0
DWIDTH 0 0
BBX 7 7 -9 24
BITMAP
38
38
FE
FE
38
38
38
ENDCHAR
STARTCHAR 0E4C
ENCODING 3660
SWIDTH 0 0
DWIDTH 0 0
BBX 9 8 -9 24
BITMAP
0180
0300
3E00
7800
CC00
CC00
CC00
7800
ENDCHAR
STARTCHAR 0E4D
ENCODING 3661
SWIDTH 0 0
DWIDTH 0 0
BBX 4 4 -6 18
BITMAP
70
90
90
70
ENDCHAR
STARTCHAR 0E4E
ENCODING 3662
SWIDTH 0 0
DWIDTH 0 0
BBX 7 9 -8 21
BITMAP
3C
7E
C0
60
3C
E0
C0
7C
3C
ENDCHAR
STARTCHAR 0E4F
ENCODING 3663
SWIDTH 600 0
DWIDTH 18 0
BBX 16 15 1 0
BITMAP
07E0
1FF8
381C
700E
63C6
4662
CC33
CC33
CC33
4662
63C6
7006
381C
1FF8
07E0
ENDCHAR
STARTCHAR 0E50
ENCODING 3664
SWIDTH 600 0
DWIDTH 18 0
BBX 14 14 2 0
BITMAP
0100
1FE0
3FF0
7878
701C
E01C
E00C
E00C
E00C
601C
7038
3EF8
1FF0
0FC0
ENDCHAR
STARTCHAR 0E51
ENCODING 3665
SWIDTH 633 0
DWIDTH 19 0
BBX 13 14 3 0
BITMAP
0600
3FC0
7FF0
7070
E738
EDB8
ED98
E7D8
7BB8
3FB8
9F78
E0F0
FFE0
3F80
ENDCHAR
STARTCHAR 0E52
ENCODING 3666
SWIDTH 666 0
DWIDTH 20 0
BBX 17 17 1 0
BITMAP
E00000
600000
700000
704800
70EE00
31FE00
33B700
3BC380
3BE380
3B6380
3BE380
39C380
380380
1C0380
1FFF80
0FFF80
07FF80
ENDCHAR
STARTCHAR 0E53
ENCODING 3667
SWIDTH 700 0
DWIDTH 21 0
BBX 18 14 1 0
BITMAP
040800
3F3F00
7FFF80
73F1C0
E1E1C0
E0E1C0
E0E0C0
E0E1C0
60C1C0
7CC1C0
7EC1C0
7601C0
360180
1C0380
ENDCHAR
STARTCHAR 0E54
ENCODING 3668
SWIDTH 766 0
DWIDTH 23 0
BBX 19 18 2 0
BITMAP
000060
0000E0
0000E0
0001C0
00FFC0
1FFF00
3FFC00
700000
E01E00
E03F00
C03300
C03B00
E03E00
E01800
700F00
7CFFC0
3FFFC0
0FC080
ENDCHAR
STARTCHAR 0E55
ENCODING 3669
SWIDTH 766 0
DWIDTH 23 0
BBX 19 18 2 0
BITMAP
000060
00F0E0
01B0E0
0191C0
01FFC0
1FFF00
3FFC00
700000
E01E00
E03F00
C03300
C03B00
E03E00
E01800
700E00
7CFFC0
3FFFC0
0FC080
ENDCHAR
STARTCHAR 0E56
ENCODING 3670
SWIDTH 633 0
DWIDTH 19 0
BBX 18 18 0 0
BITMAP
F00000
380000
380000
1C0000
0C4000
0FFC00
07FE00
040F00
000380
018380
03C180
0661C0
066180
07C180
078380
078700
03FE00
00FC00
ENDCHAR
STARTCHAR 0E57
ENCODING 3671
SWIDTH 766 0
DWIDTH 23 0
BBX 19 17 2 0
BITMAP
0000E0
0000E0
0000E0
1040E0
7DF0E0
7FF8E0
E798E0
E71CE0
E71CE0
C31CE0
C01CE0
C01CE0
FC1CE0
EC18E0
E61FC0
6C3FC0
3C3F00
ENDCHAR
STARTCHAR 0E58
ENCODING 3672
SWIDTH 766 0
DWIDTH 23 0
BBX 19 18 2 0
BITMAP
000060
0000E0
0000E0
0001C0
007F80
1FFF00
3FF800
700000
E003C0
E007E0
C00660
C086E0
E1E3E0
E3F060
733860
7F1CE0
3F0FC0
0F0780
ENDCHAR
STARTCHAR 0E59
ENCODING 3673
SWIDTH 733 0
DWIDTH 22 0
BBX 19 17 2 0
BITMAP
0000E0
0000C0
0000C0
0821C0
3E79C0
7FF9C0
E3DF80
E3CF80
E18700
C1C000
C0C000
C0E000
FCE000
EC6000
E67000
7C3000
3C3800
ENDCHAR
STARTCHAR 0E5A
ENCODING 3674
SWIDTH 700 0
DWIDTH 21 0
BBX 16 16 2 0
BITMAP
783B
D83B
CC7B
F8FB
FFFB
7FBB
083B
003B
003B
003B
003B
003B
003B
003B
003B
003B
ENDCHAR
STARTCHAR 0E5B
ENCODING 3675
SWIDTH 1166 0
DWIDTH 35 0
BBX 33 14 2 0
BITMAP
1FC0000000
3FE0000000
78F0000000
6670000000
ED30000000
CD33300000
CF77380000
CCE7398000
CFEFFBC000
E78DEFFF80
701DEE3F80
3879CE0000
1FF0840000
0FE0000000
ENDCHAR
STARTCHAR 200C
ENCODING 8204
SWIDTH 0 0
DWIDTH 0 0
BBX 2 23 -1 -4
BITMAP
C0
C0
C0
C0
C0
C0
C0
C0
C0
C0
C0
C0
C0
C0
C0
C0
C0
C0
C0
C0
C0
C0
C0
ENDCHAR
STARTCHAR 200D
ENCODING 8205
SWIDTH 0 0
DWIDTH 0 0
BBX 6 25 -3 -4
BITMAP
84
CC
78
30
78
FC
B4
30
30
30
30
30
30
30
30
30
30
30
30
30
30
30
30
30
30
ENDCHAR
STARTCHAR 200E
ENCODING 8206
SWIDTH 0 0
DWIDTH 0 0
BBX 7 25 -1 -4
BITMAP
10
08
04
FE
C4
C8
D0
C0
C0
C0
C0
C0
C0
C0
C0
C0
C0
C0
C0
C0
C0
C0
C0
C0
C0
ENDCHAR
STARTCHAR 200F
ENCODING 8207
SWIDTH 0 0
DWIDTH 0 0
BBX 7 25 -6 -4
BITMAP
20
30
40
FE
46
26
36
06
06
06
06
06
06
06
06
06
06
06
06
06
06
06
06
06
06
ENDCHAR
STARTCHAR 2010
ENCODING 8208
SWIDTH 466 0
DWIDTH 14 0
BBX 9 3 3 8
BITMAP
FF80
FF80
FF80
ENDCHAR
STARTCHAR 2013
ENCODING 8211
SWIDTH 533 0
DWIDTH 16 0
BBX 16 3 0 8
BITMAP
FFFF
FFFF
FFFF
ENDCHAR
STARTCHAR 2014
ENCODING 8212
SWIDTH 933 0
DWIDTH 28 0
BBX 27 3 0 8
BITMAP
FFFFFFE0
FFFFFFE0
FFFFFFE0
ENDCHAR
STARTCHAR 2015
ENCODING 8213
SWIDTH 900 0
DWIDTH 27 0
BBX 24 3 2 8
BITMAP
FFFFFF
FFFFFF
FFFFFF
ENDCHAR
STARTCHAR 2017
ENCODING 8215
SWIDTH 533 0
DWIDTH 16 0
BBX 17 5 0 -6
BITMAP
FFFF80
FFFF80
000000
FFFF80
FFFF80
ENDCHAR
STARTCHAR 2018
ENCODING 8216
SWIDTH 233 0
DWIDTH 7 0
BBX 6 8 -1 15
BITMAP
F0
70
70
38
38
18
18
1C
ENDCHAR
STARTCHAR 2019
ENCODING 8217
SWIDTH 300 0
DWIDTH 9 0
BBX 6 8 1 15
BITMAP
1C
3C
38
38
70
70
60
E0
ENDCHAR
STARTCHAR 201A
ENCODING 8218
SWIDTH 200 0
DWIDTH 6 0
BBX 6 8 0 -4
BITMAP
3C
38
70
70
70
60
E0
C0
ENDCHAR
STARTCHAR 201B
ENCODING 8219
SWIDTH 200 0
DWIDTH 6 0
BBX 6 8 -1 15
BITMAP
0C
1C
18
38
38
70
70
F0
ENDCHAR
STARTCHAR 201C
ENCODING 8220
SWIDTH 400 0
DWIDTH 12 0
BBX 12 8 -1 15
BITMAP
F380
73C0
71C0
31C0
38E0
18E0
1860
1C70
ENDCHAR
STARTCHAR 201D
ENCODING 8221
SWIDTH 500 0
DWIDTH 15 0
BBX 11 8 2 15
BITMAP
38E0
79E0
71C0
71C0
6380
E380
C300
C700
ENDCHAR
STARTCHAR 201E
ENCODING 8222
SWIDTH 400 0
DWIDTH 12 0
BBX 11 8 0 -4
BITMAP
3CE0
39E0
71C0
71C0
7180
6380
E300
C300
ENDCHAR
STARTCHAR 2020
ENCODING 8224
SWIDTH 533 0
DWIDTH 16 0
BBX 12 21 2 2
BITMAP
0600
0600
0600
0600
0600
0600
FFF0
FFF0
0600
0600
0600
0600
0600
0600
0600
0600
0600
0600
0600
0600
0600
ENDCHAR
STARTCHAR 2021
ENCODING 8225
SWIDTH 533 0
DWIDTH 16 0
BBX 12 21 2 2
BITMAP
0600
0600
0600
0600
0600
0600
FFF0
FFF0
0600
0600
0600
0600
0600
0600
FFF0
FFF0
0600
0600
0600
0600
0600
ENDCHAR
STARTCHAR 2022
ENCODING 8226
SWIDTH 466 0
DWIDTH 14 0
BBX 10 10 2 5
BITMAP
1E00
7F00
FF80
FFC0
FFC0
FFC0
FFC0
FF80
7F80
3F00
ENDCHAR
STARTCHAR 2026
ENCODING 8230
SWIDTH 800 0
DWIDTH 24 0
BBX 19 3 3 0
BITMAP
E0E0E0
E0E0E0
E0E0E0
ENDCHAR
STARTCHAR 2030
ENCODING 8240
SWIDTH 1400 0
DWIDTH 42 0
BBX 39 22 1 0
BITMAP
1F80380000
3FC0700000
71C0600000
60E0E00000
60E0C00000
E0E1C00000
E0E1800000
60E3800000
60E3000000
70C7040040
71C63F81F8
3F8E7BC3FC
0E0C70C70E
001C60E70E
001860E70E
0038E0E606
0030E0E606
007060E70E
006060E70E
00C070C70E
00C03FC3FC
01803F81F8
ENDCHAR
STARTCHAR 2032
ENCODING 8242
SWIDTH 300 0
DWIDTH 9 0
BBX 6 9 2 13
BITMAP
1C
3C
38
38
70
70
60
60
C0
ENDCHAR
STARTCHAR 2033
ENCODING 8243
SWIDTH 466 0
DWIDTH 14 0
BBX 12 9 2 13
BITMAP
1C70
3CE0
38E0
38C0
71C0
71C0
6180
6380
C300
ENDCHAR
STARTCHAR 2039
ENCODING 8249
SWIDTH 366 0
DWIDTH 11 0
BBX 7 14 2 3
BITMAP
02
02
06
0E
3C
78
F0
C0
F0
78
1C
0E
06
02
ENDCHAR
STARTCHAR 203A
ENCODING 8250
SWIDTH 366 0
DWIDTH 11 0
BBX 8 14 2 3
BITMAP
80
80
E0
F0
38
1C
0E
07
0E
1C
78
F0
E0
80
ENDCHAR
STARTCHAR 203C
ENCODING 8252
SWIDTH 566 0
DWIDTH 17 0
BBX 9 21 3 0
BITMAP
E180
E180
E180
E180
E180
E180
E180
C180
C180
C180
C180
C180
C180
C180
C180
4180
0000
0000
C180
C180
C180
ENDCHAR
STARTCHAR 203E
ENCODING 8254
SWIDTH 533 0
DWIDTH 16 0
BBX 17 2 -1 24
BITMAP
FFFF80
FFFF80
ENDCHAR
STARTCHAR 2044
ENCODING 8260
SWIDTH 433 0
DWIDTH 13 0
BBX 13 22 0 0
BITMAP
0018
0038
0030
0070
0060
00E0
00C0
01C0
0180
0380
0300
0700
0600
0C00
1C00
1800
3800
3000
7000
6000
E000
C000
ENDCHAR
STARTCHAR 207F
ENCODING 8319
SWIDTH 500 0
DWIDTH 15 0
BBX 11 14 2 8
BITMAP
CF80
DFC0
F0E0
E0E0
C0E0
C0E0
C060
C060
C060
C060
C060
C060
C060
C060
ENDCHAR
STARTCHAR 20AC
ENCODING 8364
SWIDTH 533 0
DWIDTH 16 0
BBX 16 22 0 0
BITMAP
01FE
07FF
0F8F
1E01
3C00
3800
3800
7000
FFFE
FFFC
7000
7000
FFFC
FFFC
7000
3800
3800
3C00
1E00
0F87
07FF
03FE
ENDCHAR
STARTCHAR 25CC
ENCODING 9676
SWIDTH 600 0
DWIDTH 18 0
BBX 18 18 0 0
BITMAP
008000
04C800
061800
000300
300300
000000
400080
400080
000000
000000
C000C0
000080
000000
300180
000100
0C0400
08CC00
00C000
ENDCHAR
STARTCHAR F700
ENCODING 63232
SWIDTH 533 0
DWIDTH 16 0
BBX 14 17 1 0
BITMAP
0780
1FFC
3CFC
7008
7800
FF80
0FE0
3CF0
6C30
4E38
4E38
7E38
3E38
0E30
0F70
07F0
03E0
ENDCHAR
STARTCHAR F701
ENCODING 63233
SWIDTH 0 0
DWIDTH 0 0
BBX 14 6 -21 17
BITMAP
0FE0
1C70
3018
7FDC
9FFC
0004
ENDCHAR
STARTCHAR F702
ENCODING 63234
SWIDTH 0 0
DWIDTH 0 0
BBX 14 7 -21 17
BITMAP
001C
0FDC
3FFC
707C
FF9C
FFFC
001C
ENDCHAR
STARTCHAR F703
ENCODING 63235
SWIDTH 0 0
DWIDTH 0 0
BBX 16 7 -22 17
BITMAP
000E
1FDF
3FF3
7073
FF3E
3FF8
000C
ENDCHAR
STARTCHAR F704
ENCODING 63236
SWIDTH 0 0
DWIDTH 0 0
BBX 14 7 -22 17
BITMAP
00DC
0FDC
3FFC
707C
FFBC
7FFC
000C
ENDCHAR
STARTCHAR F705
ENCODING 63237
SWIDTH 0 0
DWIDTH 0 0
BBX 2 4 -9 19
BITMAP
C0
C0
C0
C0
ENDCHAR
STARTCHAR F706
ENCODING 63238
SWIDTH 0 0
DWIDTH 0 0
BBX 11 7 -15 16
BITMAP
7060
D0C0
99C0
FB80
3700
3C00
7000
ENDCHAR
STARTCHAR F707
ENCODING 63239
SWIDTH 0 0
DWIDTH 0 0
BBX 14 8 -19 17
BITMAP
220C
738C
FFD8
CCD8
B0F8
E8F0
F8E0
2100
ENDCHAR
STARTCHAR F708
ENCODING 63240
SWIDTH 0 0
DWIDTH 0 0
BBX 6 6 -13 15
BITMAP
30
30
FC
FC
30
30
ENDCHAR
STARTCHAR F709
ENCODING 63241
SWIDTH 0 0
DWIDTH 0 0
BBX 9 8 -15 17
BITMAP
0380
1E00
F800
F800
8800
8C00
F800
2000
ENDCHAR
STARTCHAR F70A
ENCODING 63242
SWIDTH 0 0
DWIDTH 0 0
BBX 3 4 -5 19
BITMAP
E0
E0
E0
E0
ENDCHAR
STARTCHAR F70B
ENCODING 63243
SWIDTH 0 0
DWIDTH 0 0
BBX 11 7 -12 18
BITMAP
7060
D8C0
99C0
FB80
1700
3C00
7000
ENDCHAR
STARTCHAR F70C
ENCODING 63244
SWIDTH 0 0
DWIDTH 0 0
BBX 15 8 -12 18
BITMAP
0006
338C
7FCC
CCD8
F078
E878
7870
30C0
ENDCHAR
STARTCHAR F70D
ENCODING 63245
SWIDTH 0 0
DWIDTH 0 0
BBX 6 6 -7 18
BITMAP
30
30
FC
FC
30
30
ENDCHAR
STARTCHAR F70E
ENCODING 63246
SWIDTH 0 0
DWIDTH 0 0
BBX 9 8 -10 18
BITMAP
0380
1E00
7C00
F800
8800
8C00
F800
3000
ENDCHAR
STARTCHAR F70F
ENCODING 63247
SWIDTH 866 0
DWIDTH 26 0
BBX 21 17 2 0
BITMAP
078018
1FE018
3FF818
703818
E01C18
F01C18
381C18
380C18
300C18
600C18
600C18
780C18
7E0C18
660C18
660C18
7E0FF8
3C0FF8
ENDCHAR
STARTCHAR F710
ENCODING 63248
SWIDTH 0 0
DWIDTH 0 0
BBX 11 6 -17 18
BITMAP
7060
D860
C8E0
F9C0
7F80
3E00
ENDCHAR
STARTCHAR F711
ENCODING 63249
SWIDTH 0 0
DWIDTH 0 0
BBX 5 4 -12 18
BITMAP
70
D8
D8
70
ENDCHAR
STARTCHAR F712
ENCODING 63250
SWIDTH 0 0
DWIDTH 0 0
BBX 12 9 -16 19
BITMAP
0070
00E0
1FC0
7F00
E1C0
C160
DDE0
7FE0
73C0
ENDCHAR
STARTCHAR F713
ENCODING 63251
SWIDTH 0 0
DWIDTH 0 0
BBX 2 4 -8 27
BITMAP
C0
C0
C0
C0
ENDCHAR
STARTCHAR F714
ENCODING 63252
SWIDTH 0 0
DWIDTH 0 0
BBX 11 7 -11 25
BITMAP
6060
F0C0
99C0
F380
3700
3E00
7800
ENDCHAR
STARTCHAR F715
ENCODING 63253
SWIDTH 0 0
DWIDTH 0 0
BBX 14 8 -14 24
BITMAP
220C
738C
FF98
CCD8
B0F8
C8F0
F0E0
2100
ENDCHAR
STARTCHAR F716
ENCODING 63254
SWIDTH 0 0
DWIDTH 0 0
BBX 6 6 -10 25
BITMAP
30
30
FC
FC
30
30
ENDCHAR
STARTCHAR F717
ENCODING 63255
SWIDTH 0 0
DWIDTH 0 0
BBX 10 8 -11 24
BITMAP
01C0
0380
3E00
7800
EC00
C400
6C00
7C00
ENDCHAR
STARTCHAR F718
ENCODING 63256
SWIDTH 0 0
DWIDTH 0 0
BBX 4 7 -7 -8
BITMAP
60
B0
90
F0
70
30
30
ENDCHAR
STARTCHAR F719
ENCODING 63257
SWIDTH 0 0
DWIDTH 0 0
BBX 9 7 -12 -8
BITMAP
6180
F180
9980
F980
5980
1F80
1F80
ENDCHAR
STARTCHAR F71A
ENCODING 63258
SWIDTH 0 0
DWIDTH 0 0
BBX 4 4 -6 -5
BITMAP
70
F0
F0
60
ENDCHAR
STARTCHAR F71B
ENCODING 63259
SWIDTH 500 0
DWIDTH 15 0
BBX 9 15 3 1
BITMAP
FF80
FF80
FF80
FF80
FF80
FF80
FF80
FF80
FF80
FF80
FF80
FF80
FF80
FF80
FF80
ENDCHAR
STARTCHAR F71C
ENCODING 63260
SWIDTH 333 0
DWIDTH 10 0
BBX 5 4 2 -6
BITMAP
78
70
E0
C0
ENDCHAR
STARTCHAR F71D
ENCODING 63261
SWIDTH 400 0
DWIDTH 12 0
BBX 6 3 3 -3
BITMAP
FC
FC
84
ENDCHAR
ENDFONT
